HIERARCHY
ROOT Hips
{
	OFFSET 0.00000 0.00000 0.00000
	CHANNELS 6 Xposition Yposition Zposition Zrotation Yrotation Xrotation 
	JOINT LHipJoint
	{
		OFFSET 0 0 0
		CHANNELS 3 Zrotation Yrotation Xrotation
		JOINT LeftHip
		{
			OFFSET 1.39187 -1.60231 0.69152
			CHANNELS 3 Zrotation Yrotation Xrotation
			JOINT LeftKnee
			{
				OFFSET 2.43314 -6.68499 0.00000
				CHANNELS 3 Zrotation Yrotation Xrotation
				JOINT LeftAnkle
				{
					OFFSET 2.32059 -6.37578 0.00000
					CHANNELS 3 Zrotation Yrotation Xrotation
					JOINT LeftToe
					{
						OFFSET 0.23021 -0.63250 1.71305
						CHANNELS 3 Zrotation Yrotation Xrotation
						End Site
						{
							OFFSET 0.00000 -0.00000 0.91647
						}
					}
				}
			}
		}
	}
	JOINT RHipJoint
	{
		OFFSET 0 0 0
		CHANNELS 3 Zrotation Yrotation Xrotation
		JOINT RightHip
		{
			OFFSET -1.19407 -1.60231 0.69152
			CHANNELS 3 Zrotation Yrotation Xrotation
			JOINT RightKnee
			{
				OFFSET -2.44411 -6.71513 0.00000
				CHANNELS 3 Zrotation Yrotation Xrotation
				JOINT RightAnkle
				{
					OFFSET -2.31924 -6.37207 0.00000
					CHANNELS 3 Zrotation Yrotation Xrotation
					JOINT RightToe
					{
						OFFSET -0.19473 -0.53502 1.87724
						CHANNELS 3 Zrotation Yrotation Xrotation
						End Site
						{
							OFFSET -0.00000 -0.00000 0.98293
						}
					}
				}
			}
		}
	}
	JOINT lowerback
	{
		OFFSET 0 0 0
		CHANNELS 3 Zrotation Yrotation Xrotation
		JOINT Chest
		{
			OFFSET -0.01120 1.87307 0.09613
			CHANNELS 3 Zrotation Yrotation Xrotation
			JOINT Chest2
			{
				OFFSET 0.01099 1.87818 0.04834
				CHANNELS 3 Zrotation Yrotation Xrotation
				JOINT lowerneck
				{
					OFFSET 0 0 0
					CHANNELS 3 Zrotation Yrotation Xrotation
					JOINT Neck
					{
						OFFSET 0.01702 1.40324 -0.12579
						CHANNELS 3 Zrotation Yrotation Xrotation
						JOINT Head
						{
							OFFSET -0.04239 1.38587 -0.01614
							CHANNELS 3 Zrotation Yrotation Xrotation
							End Site
							{
								OFFSET -0.02510 1.47031 -0.00154
							}
						}
					}
				}
				JOINT LeftCollar
				{
					OFFSET 0 0 0
					CHANNELS 3 Zrotation Yrotation Xrotation
					JOINT LeftShoulder
					{
						OFFSET 2.95699 0.62343 0.11653
CHANNELS 3 Zrotation Xrotation Yrotation
						JOINT LeftElbow
						{
OFFSET 0 -4.683820 -0.000000
CHANNELS 3 Zrotation Xrotation Yrotation
							JOINT LeftWrist
							{
OFFSET 0 -2.981240 -0.000000
CHANNELS 3 Zrotation Xrotation Yrotation
								JOINT lhand
								{
									OFFSET 0 0 0
CHANNELS 3 Zrotation Xrotation Yrotation
									JOINT LFingers
									{
OFFSET 0 -0.707590 0.000000
CHANNELS 3 Zrotation Xrotation Yrotation
										End Site
										{
OFFSET 0 -0.570480 0.000000
										}
									}
								}
								JOINT LThumb
								{
OFFSET 0 0.000000 0.000000
CHANNELS 3 Zrotation Xrotation Yrotation
									End Site
									{
OFFSET 0 -0.579190 0.579190
									}
								}
							}
						}
					}
				}
				JOINT RightCollar
				{
					OFFSET 0 0 0
					CHANNELS 3 Zrotation Yrotation Xrotation
					JOINT RightShoulder
					{
						OFFSET -2.99027 0.88714 -0.02793
CHANNELS 3 Zrotation Xrotation Yrotation
						JOINT RightElbow
						{
OFFSET 0 -4.758760 -0.000000
CHANNELS 3 Zrotation Xrotation Yrotation
							JOINT RightWrist
							{
OFFSET 0 -2.932930 -0.000000
CHANNELS 3 Zrotation Xrotation Yrotation
								JOINT rhand
								{
									OFFSET 0 0 0
CHANNELS 3 Zrotation Xrotation Yrotation
									JOINT RFingers
									{
OFFSET 0 -0.831750 0.000000
CHANNELS 3 Zrotation Xrotation Yrotation
										End Site
										{
OFFSET 0 -0.670580 0.000000
										}
									}
								}
								JOINT RThumb
								{
OFFSET 0 0.000000 0.000000
CHANNELS 3 Zrotation Xrotation Yrotation
									End Site
									{
OFFSET 0 -0.680820 0.680820
									}
								}
							}
						}
					}
				}
			}
		}
	}
}
MOTION
Frames: 10
Frame Time: 0.008333333333333333
6.131053 16.580987 0.768684 569.968247 85.025820 586.330135 0.000000 0.000000 0.000000 -14.457875 -9.660806 -32.015434 12.860635 18.731239 68.692043 0.306652 1.370765 -11.049003 0.028516 -1.090645 -2.998338 0.000000 0.000000 0.000000 26.560147 12.783077 -23.697794 -2.288636 -9.443087 27.191404 -0.231690 -6.115412 -13.350757 -0.217618 3.002485 -8.285799 -3.135057 -0.536348 -15.295524 1.133222 -0.066436 -4.265278 2.964037 0.050580 4.052673 -6.188419 -2.315636 1.027799 9.501470 -3.731110 15.359457 3.859833 -1.500415 4.686777 0.000000 0.000000 0.000000 -3.031235 1.748193 94.518048 6.157743 -10.524930 0.567667 8.296455 128.520485 -25.679004 0.000000 0.000000 0.000000 -7.125000 0.000000 0.000000 -22.586850 54.435132 5.446391 0.000000 0.000000 0.000000 0.761507 0.343659 16.813738 -14.064324 -22.826529 -2.853082 -20.114942 4.306946 -7.250990 0.000000 0.000000 0.000000 7.125000 0.000000 0.000000 4.879331 22.272405 2.675031
6.269314 16.583449 0.767654 569.094886 84.945319 585.452447 0.000000 0.000000 0.000000 -14.317813 -10.399584 -33.013223 12.703463 18.672326 68.201763 0.378067 1.609686 -12.305139 0.038057 -1.256945 -3.456169 0.000000 0.000000 0.000000 26.612610 12.791714 -23.084880 -2.296022 -9.457156 27.236162 -0.215307 -6.313417 -13.285088 -0.222764 3.038389 -8.385578 -3.119566 -0.520146 -15.150731 1.109246 -0.052527 -4.258807 2.931389 0.057888 3.980469 -6.381418 -2.294484 0.930749 9.668220 -3.715215 15.354004 3.945126 -1.493058 4.705279 0.000000 0.000000 0.000000 -2.968440 2.524393 92.228295 6.084785 -10.403514 0.554475 7.658124 125.297791 -26.373037 0.000000 0.000000 0.000000 -7.125000 0.000000 0.000000 -23.644715 54.949731 6.029656 0.000000 0.000000 0.000000 0.497354 -0.480543 17.281801 -14.335251 -23.211671 -2.959082 -20.249393 4.897617 -7.595289 0.000000 0.000000 0.000000 7.125000 0.000000 0.000000 4.780507 21.900867 2.661336
6.408707 16.585562 0.766121 568.385058 84.863942 584.690718 0.000000 0.000000 0.000000 -14.135984 -11.184143 -33.906351 12.479828 18.585836 67.501447 0.456503 1.703684 -13.484563 0.041209 -1.309624 -3.601211 0.000000 0.000000 0.000000 26.701872 12.735040 -22.420863 -2.304403 -9.473346 27.287438 -0.203405 -6.531916 -13.315036 -0.256850 3.258535 -8.999632 -3.075468 -0.393786 -15.033178 1.011578 0.107336 -4.246446 2.831182 0.137114 3.919135 -6.419413 -2.363090 1.052964 9.819787 -3.822467 15.256226 3.995438 -1.543170 4.666391 0.000000 0.000000 0.000000 -2.769600 3.283743 89.940213 6.033837 -10.318577 0.545274 6.916492 122.242086 -27.297867 0.000000 0.000000 0.000000 -7.125000 0.000000 0.000000 -24.983758 55.643593 6.839279 0.000000 0.000000 0.000000 0.387505 -1.143421 17.650257 -14.696548 -23.721115 -3.103209 -20.517862 4.834859 -7.546327 0.000000 0.000000 0.000000 7.125000 0.000000 0.000000 4.584760 21.938234 2.547940
6.548713 16.591146 0.763816 568.057277 84.839098 584.268561 0.000000 0.000000 0.000000 -13.985911 -11.854138 -34.706361 12.194354 18.470868 66.602785 0.515954 1.769706 -14.320981 0.040153 -1.293280 -3.556227 0.000000 0.000000 0.000000 26.807065 12.641880 -21.746611 -2.314606 -9.492805 27.349475 -0.203089 -6.597852 -13.376917 -0.282307 3.416414 -9.440400 -3.032995 -0.193624 -14.922554 0.891670 0.364433 -4.194292 2.725839 0.262255 3.897472 -6.353987 -2.485176 1.280355 9.840077 -3.987563 15.050462 3.984131 -1.628197 4.578617 0.000000 0.000000 0.000000 -2.524294 4.012192 87.355481 5.966093 -10.205521 0.533210 6.546444 119.070231 -27.623978 0.000000 0.000000 0.000000 -7.125000 0.000000 0.000000 -25.565882 55.865323 7.149166 0.000000 0.000000 0.000000 0.255794 -1.815059 18.268962 -15.065068 -24.236005 -3.252975 -20.740562 3.598117 -7.239953 0.000000 0.000000 0.000000 7.125000 0.000000 0.000000 4.421792 22.251868 2.425430
6.688570 16.597076 0.761162 568.466135 84.900228 584.601481 0.000000 0.000000 0.000000 -13.855614 -12.359806 -35.489848 11.855714 18.327745 65.529400 0.559926 1.859819 -14.928494 0.040269 -1.295114 -3.561281 0.000000 0.000000 0.000000 26.905462 12.623506 -21.102805 -2.328464 -9.519143 27.433347 -0.207139 -6.597650 -13.441783 -0.292754 3.479195 -9.615793 -2.993358 -0.007588 -14.882237 0.796843 0.603178 -4.103212 2.646353 0.375686 3.956822 -6.403866 -2.556335 1.502796 9.938465 -4.088228 14.758006 4.019065 -1.687505 4.463142 0.000000 0.000000 0.000000 -2.344873 4.765405 83.917788 5.885820 -10.071551 0.519131 6.607310 115.103195 -27.255043 0.000000 0.000000 0.000000 -7.125000 0.000000 0.000000 -25.253902 55.545506 6.855158 0.000000 0.000000 0.000000 0.073454 -2.642468 18.961686 -15.336379 -24.612359 -3.364946 -20.766125 2.392929 -6.733980 0.000000 0.000000 0.000000 7.125000 0.000000 0.000000 4.403473 22.788647 2.360660
6.826903 16.599309 0.757034 569.902785 85.028733 585.991352 0.000000 0.000000 0.000000 -13.707654 -12.730784 -36.247365 11.468108 18.154857 64.290529 0.605062 1.945170 -15.522161 0.044981 -1.366844 -3.758776 0.000000 0.000000 0.000000 27.021226 12.650986 -20.474559 -2.342016 -9.544802 27.514945 -0.215030 -6.566460 -13.535187 -0.295434 3.495009 -9.659996 -2.912771 0.178536 -14.894677 0.729400 0.835863 -3.992988 2.572509 0.484969 4.066621 -6.505048 -2.590286 1.648595 10.028534 -4.136519 14.487614 4.061725 -1.723055 4.363826 0.000000 0.000000 0.000000 -2.229353 5.479267 80.340732 5.828011 -9.975037 0.509048 6.680456 110.978890 -26.890855 0.000000 0.000000 0.000000 -7.125000 0.000000 0.000000 -24.933712 55.232541 6.562808 0.000000 0.000000 0.000000 -0.123086 -3.540914 19.507125 -15.550308 -24.906930 -3.454564 -20.685345 1.810767 -6.205649 0.000000 0.000000 0.000000 7.125000 0.000000 0.000000 4.464776 23.354557 2.335618
6.964176 16.598765 0.751018 572.231316 85.207711 588.281661 0.000000 0.000000 0.000000 -13.553785 -13.017141 -36.946093 11.031937 17.948443 62.882459 0.652863 2.029966 -16.128398 0.060481 -1.576399 -4.336499 0.000000 0.000000 0.000000 27.153125 12.687107 -19.814115 -2.346307 -9.552849 27.540563 -0.225162 -6.489629 -13.616941 -0.287290 3.446396 -9.524120 -2.780066 0.390221 -14.889172 0.672437 1.093258 -3.882848 2.484451 0.606931 4.166949 -6.539263 -2.631262 1.723584 9.971378 -4.180193 14.267006 4.046356 -1.757909 4.288171 0.000000 0.000000 0.000000 -2.120995 6.111528 77.177448 5.797421 -9.923916 0.503735 6.506173 107.178084 -26.865945 0.000000 0.000000 0.000000 -7.125000 0.000000 0.000000 -25.086321 55.176524 6.571899 0.000000 0.000000 0.000000 -0.323750 -4.405854 19.949162 -15.795417 -25.242066 -3.558548 -20.582974 1.539764 -5.802909 0.000000 0.000000 0.000000 7.125000 0.000000 0.000000 4.543324 23.787309 2.331667
7.102081 16.601448 0.745055 574.775195 85.432793 590.801184 0.000000 0.000000 0.000000 -13.423858 -13.299223 -37.607436 10.547839 17.704094 61.300916 0.688796 2.153384 -16.601380 0.084075 -1.867554 -5.139866 0.000000 0.000000 0.000000 27.248390 12.760620 -19.107766 -2.333157 -9.527870 27.461153 -0.233033 -6.385769 -13.635862 -0.269198 3.337521 -9.219911 -2.650642 0.609739 -14.813381 0.599976 1.361477 -3.817202 2.381705 0.737058 4.183431 -6.529731 -2.687057 1.749852 9.855965 -4.239474 14.097996 4.004560 -1.798593 4.236184 0.000000 0.000000 0.000000 -1.988880 6.780126 73.959447 5.785504 -9.903994 0.501687 6.148344 103.252197 -26.867463 0.000000 0.000000 0.000000 -7.125000 0.000000 0.000000 -25.434135 55.109460 6.628701 0.000000 0.000000 0.000000 -0.511928 -5.210205 20.329276 -16.054190 -25.593892 -3.669442 -20.500937 1.223241 -5.722123 0.000000 0.000000 0.000000 7.125000 0.000000 0.000000 4.604879 23.876666 2.354167
7.241698 16.612091 0.741161 576.891067 85.668331 592.909282 0.000000 0.000000 0.000000 -13.292568 -13.664149 -38.237778 10.018258 17.417618 59.546012 0.704578 2.294906 -16.848865 0.092126 -1.951947 -5.372969 0.000000 0.000000 0.000000 27.293799 12.861164 -18.356137 -2.299686 -9.464054 27.258243 -0.237223 -6.306181 -13.622114 -0.259755 3.279057 -9.056727 -2.574181 0.818936 -14.648867 0.493222 1.626113 -3.835536 2.268103 0.870057 4.064776 -6.535715 -2.755407 1.729946 9.849314 -4.328565 14.019904 3.999052 -1.845003 4.223798 0.000000 0.000000 0.000000 -1.828783 7.604461 70.286488 5.800855 -9.929639 0.504327 5.739340 98.974721 -26.670559 0.000000 0.000000 0.000000 -7.125000 0.000000 0.000000 -25.697499 54.854834 6.540798 0.000000 0.000000 0.000000 -0.645289 -5.954416 20.513228 -16.221226 -25.819680 -3.741774 -20.576925 0.878430 -6.192267 0.000000 0.000000 0.000000 7.125000 0.000000 0.000000 4.545545 23.373260 2.375281
7.383839 16.627300 0.737551 578.934997 85.837583 594.884476 0.000000 0.000000 0.000000 -13.098129 -14.079625 -38.721574 9.446639 17.084901 57.619679 0.711038 2.378495 -16.963247 0.064801 -1.641747 -4.516539 0.000000 0.000000 0.000000 27.400299 12.870708 -17.478212 -2.247455 -9.363368 26.938776 -0.237118 -6.270703 -13.585488 -0.265481 3.314375 -9.155299 -2.497563 1.021667 -14.413047 0.387883 1.879893 -3.859353 2.150586 0.998251 3.903952 -6.512053 -2.829064 1.756211 9.880127 -4.428473 13.902327 4.000207 -1.895092 4.192526 0.000000 0.000000 0.000000 -1.628016 8.409039 67.078371 5.825768 -9.971232 0.508624 5.435010 95.335940 -26.550752 0.000000 0.000000 0.000000 -7.125000 0.000000 0.000000 -25.910898 54.689988 6.493883 0.000000 0.000000 0.000000 -0.756293 -6.690354 20.623049 -16.301314 -25.927545 -3.776751 -20.884349 0.451610 -6.942618 0.000000 0.000000 0.000000 7.125000 0.000000 0.000000 4.316246 22.560688 2.336373
